<svg width="21" height="21" viewBox="0 0 21 21" fill="none" xmlns="http://www.w3.org/2000/svg">
<circle cx="10.5" cy="10.5" r="10.5" fill="#3CAF2A"/>
<path d="M2.88565 13H1.23793L3.74858 5.72727H5.73011L8.23722 13H6.58949L4.76776 7.3892H4.71094L2.88565 13ZM2.78267 10.1413H6.67472V11.3416H2.78267V10.1413ZM9.96839 13.0923C9.73402 13.0923 9.53279 13.0095 9.3647 12.8438C9.19898 12.6757 9.11612 12.4744 9.11612 12.2401C9.11612 12.008 9.19898 11.8092 9.3647 11.6435C9.53279 11.4777 9.73402 11.3949 9.96839 11.3949C10.1957 11.3949 10.3945 11.4777 10.565 11.6435C10.7354 11.8092 10.8207 12.008 10.8207 12.2401C10.8207 12.3963 10.7804 12.5395 10.6999 12.6697C10.6218 12.7976 10.5188 12.9006 10.391 12.9787C10.2631 13.0545 10.1223 13.0923 9.96839 13.0923ZM12.0911 13V5.72727H13.6287V8.72798H16.7502V5.72727H18.2843V13H16.7502V9.99574H13.6287V13H12.0911Z" fill="white"/>
</svg>
